# xmcd
#
# Track frame offsets: 
#        150
#        44014
#        81988
#        121672
#        151346
#        179007
#        235108
#        301110
#        326361
#
# Disc length: 4751 seconds
#
# Revision: 0
# Processed by: cddbd v1.5.2PL0 Copyright (c) Steve Scherf et al.
# Submitted via: ExactAudioCopyFreeDBPlugin 1.0
#
DISCID=6b128d09
DTITLE=Johannes Moser (Violoncello), Paul Rivinus (Piano) - Brahms and
DTITLE=his Contemeporaris Vol.II
DYEAR=2006
DGENRE=Chamber Music
TTITLE0=Richard Strauss: Sonate F-Dur op.6: Allegro con brio
TTITLE1=Andante ma non troppo
TTITLE2=Finale. Allegro vivo
TTITLE3=Heinrich von Herzogenberg: Sonate Nr.3 op.94: Allegro
TTITLE4=Andantino
TTITLE5=Allegro moderato
TTITLE6=Johannes Brahms: Sonate Nr.1 e-moll op.38: Allegro non troppo
TTITLE7=Allegretto quasi Menuetto
TTITLE8=Allegro
EXTD=
EXTT0=
EXTT1=
EXTT2=
EXTT3=
EXTT4=
EXTT5=
EXTT6=
EXTT7=
EXTT8=
PLAYORDER=
